# xmcd
#
# Track frame offsets:
#	150
#	19105
#	36764
#	52021
#	74605
#	91041
#	108526
#	124531
#	145836
#	164030
#	185256
#	199604
#	212990
#	231051
#	250258
#	265843
#	285738
#	303810
#	318729
#	337541
#
# Disc length: 4680 seconds
#
# Revision: 2
# Processed by: cddbd v1.5.2PL0 Copyright (c) Steve Scherf et al.
# Submitted via: audiograbber 1.83.01
#
DISCID=20124614
DTITLE=Various Artist - American Anthems [CD1]
DYEAR=2010
DGENRE=Rock
TTITLE0=Journey - Don't Stop Believin'
TTITLE1=The Cars - Drive
TTITLE2=Boston - More Than A Feeling
TTITLE3=Foreigner - I Want To Know What Love Is
TTITLE4=Heart - Alone
TTITLE5=Huey Lewis and The News - The Power Of Love
TTITLE6=Billy Idol - White Wedding
TTITLE7=Richard Marx - Hazard
TTITLE8=Toto - Rosanna
TTITLE9=Mr. Mister - Broken Wings
TTITLE10=Cheap Trick - I Want You To Want Me
TTITLE11=Joe Esposito - You're The Best
TTITLE12=The Knack - My Sharona
TTITLE13=The Hooters - Satellite
TTITLE14=Soul Asylum - Runaway Train
TTITLE15=Shawn Colvin - Sunny Came Home
TTITLE16=Lonestar - Amazed
TTITLE17=Santana - She's Not There
TTITLE18=Survivor - American Heartbeat
TTITLE19=ZZ Top - Sharp Dressed Man
EXTD=
EXTT0=
EXTT1=
EXTT2=
EXTT3=
EXTT4=
EXTT5=
EXTT6=
EXTT7=
EXTT8=
EXTT9=
EXTT10=
EXTT11=
EXTT12=
EXTT13=
EXTT14=
EXTT15=
EXTT16=
EXTT17=
EXTT18=
EXTT19=
PLAYORDER=
